<svg xmlns="http://www.w3.org/2000/svg" viewBox="0 0 96 96" width="96" height="96" fill="none">
<circle cx="48" cy="48" r="46" fill="#F4F4F5"/>
<path d="M48 20c-13 0-22 10-22 24 0 16 10 28 22 28s22-12 22-28c0-14-9-24-22-24Z" stroke="#0F172A" stroke-width="2.5"/>
<circle cx="39" cy="46" r="2.2" fill="#0F172A"/>
<circle cx="57" cy="46" r="2.2" fill="#0F172A"/>
<path d="M42 62c2.5 2 9.5 2 12 0" stroke="#0F172A" stroke-width="2.5" stroke-linecap="round"/><path d="M30 30c1-3 3-5 5-6M61 24c2 1 4 3 5 6M48 20v8" stroke="#2F5FD6" stroke-width="2.5" stroke-linecap="round"/>
<circle cx="34" cy="32" r="2" fill="#2F5FD6"/><circle cx="62" cy="32" r="2" fill="#2F5FD6"/><circle cx="48" cy="26" r="2" fill="#2F5FD6"/>
</svg>
